<svg xmlns="http://www.w3.org/2000/svg" width="1000" height="1000" viewBox="0 0 1000 1000">
  <defs>
    <style>
      .cls-1 {
        fill: #33364d;
      }

      .cls-1, .cls-2, .cls-3 {
        fill-rule: evenodd;
      }

      .cls-2 {
        fill: #07c;
      }

      .cls-3 {
        fill: #fff;
      }
    </style>
  </defs>
  <path class="cls-1" d="M506.452,268c48.274,1.726,56.038,42.005,70.749,76.714,33.046,77.965,63.011,159.23,96.018,237.207,4.531,10.7,6.635,20.428,11.118,31.291,10.218,24.764,26.634,54.367,5.053,79.742-10.023,11.786-39.189,17.135-54.578,6.057-16.337-11.761-27.929-51.137-36.386-71.667-2.049-4.974-8.2-28.658-11.117-30.282H415.488c-15.072,40.892-27.137,92.161-59.632,116.08-17.67,13.007-27.192,17.129-46.493,3.028-3.721-2.718-12.985-8.145-15.16-12.112-3.259-5.946.8-30.073,3.032-38.357,2.028-7.511,8.346-10.818,11.118-17.16,9.3-21.269,15.543-43.054,24.257-63.592,7.894-18.6,12.422-36.779,20.214-55.516,21.3-51.225,40.384-105.239,61.653-156.456,13.256-31.922,20.668-69.672,46.493-88.827,6.993-5.187,16.9-11.109,25.268-14.131C491.517,268.113,501.806,270.809,506.452,268Zm-6.064,90.845q-30.825,86.295-61.654,172.607H564.062v-1.01C555.638,518.876,552.744,497.19,546.88,483c-11.74-28.412-19.614-59.409-31.332-87.818C511.154,384.531,506.963,367.078,500.388,358.845Z"/>
  <path class="cls-2" d="M307.906,182.08c5.445-8.006,189.362-6.939,193.251,0s3.889,52.4,0,62.537-187.806,5.872-193.251,0S302.462,190.087,307.906,182.08Z"/>
  <path id="Rectangle_1_copy" data-name="Rectangle 1 copy" class="cls-1" d="M587.043,143.218c8.174,5.318,7.7,185.873.644,189.714s-53.359,3.992-63.7.208-6.607-184.349-.644-189.714S578.869,137.9,587.043,143.218Z"/>
  <path id="Rectangle_1_copy_2" data-name="Rectangle 1 copy 2" class="cls-1" d="M579.719,332.623c-11.913,7.908-451.155,3.521-459.38-3.419s-7.2-52.144,1.4-62.19,448.6-3.626,460.2,2.268S591.632,324.715,579.719,332.623Z"/>
  <path class="cls-1" d="M76.091,231.348c35.949,0,65.092,28.482,65.092,63.617s-29.143,63.618-65.092,63.618S11,330.1,11,294.965,40.142,231.348,76.091,231.348Z"/>
  <path id="Ellipse_1_copy" data-name="Ellipse 1 copy" class="cls-3" d="M77.141,256.164c22.506,0,40.75,17.832,40.75,39.828s-18.244,39.827-40.75,39.827-40.75-17.831-40.75-39.827S54.636,256.164,77.141,256.164Z"/>
  <path id="Rectangle_1_copy_3" data-name="Rectangle 1 copy 3" class="cls-1" d="M817.541,305.531c8.152,5.379,5.734,185.127-1.393,188.878s-53.634,3.423-63.982-.451-4.653-183.6,1.393-188.878S809.388,300.152,817.541,305.531Z"/>
  <path id="Rectangle_1_copy_3-2" data-name="Rectangle 1 copy 3" class="cls-2" d="M855.289,578.631c-5.5,7.951-190.223,6.186-194.1-.738s-3.7-52.18.246-62.262,188.655-5.128,194.1.738S860.789,570.681,855.289,578.631Z"/>
  <path id="Rectangle_1_copy_3-3" data-name="Rectangle 1 copy 3" class="cls-2" d="M661.561,570.108c-8-11.7-.35-440.971,6.809-448.96s53.4-6.666,63.617,1.82,0.476,438.475-5.637,449.771S669.566,581.809,661.561,570.108Z"/>
  <path id="Ellipse_1_copy_2" data-name="Ellipse 1 copy 2" class="cls-2" d="M703.732,15c36.207,0,65.56,28.269,65.56,63.141s-29.353,63.141-65.56,63.141-65.561-28.269-65.561-63.141S667.524,15,703.732,15Z"/>
  <path id="Ellipse_1_copy_2-2" data-name="Ellipse 1 copy 2" class="cls-3" d="M702.644,39.633c22.661,0,41.031,17.7,41.031,39.534S725.305,118.7,702.644,118.7,661.613,101,661.613,79.168,679.983,39.633,702.644,39.633Z"/>
  <path id="Rectangle_1_copy_4" data-name="Rectangle 1 copy 4" class="cls-2" d="M688.788,791.618c-5.5,7.969-189.414,5.638-193.253-1.327s-3.513-52.419.449-62.534,187.851-4.581,193.253,1.328S694.29,783.649,688.788,791.618Z"/>
  <path id="Rectangle_1_copy_4-2" data-name="Rectangle 1 copy 4" class="cls-1" d="M409.368,828.56c-8.136-5.374-6.363-185.914.721-189.706s53.387-3.626,63.7.229,5.281,184.384-.72,189.707S417.5,833.935,409.368,828.56Z"/>
  <path id="Rectangle_1_copy_4-3" data-name="Rectangle 1 copy 4" class="cls-1" d="M418.054,639.217c11.97-7.826,451.185-.422,459.361,6.574s6.83,52.19-1.851,62.177-448.631.544-460.19-5.428S406.084,647.043,418.054,639.217Z"/>
  <path id="Ellipse_1_copy_3" data-name="Ellipse 1 copy 3" class="cls-1" d="M921.415,616.243c35.669,0,64.585,28.7,64.585,64.094s-28.916,64.094-64.585,64.094-64.585-28.7-64.585-64.094S885.746,616.243,921.415,616.243Z"/>
  <path id="Ellipse_1_copy_3-2" data-name="Ellipse 1 copy 3" class="cls-3" d="M920.384,639.19a40.1,40.1,0,1,1-40.45,40.1A40.277,40.277,0,0,1,920.384,639.19Z"/>
  <path id="Rectangle_1_copy_5" data-name="Rectangle 1 copy 5" class="cls-1" d="M172.824,677.5c-8.152-5.379-5.735-185.126,1.393-188.877s53.634-3.424,63.982.45,4.653,183.6-1.393,188.878S180.977,682.882,172.824,677.5Z"/>
  <path id="Rectangle_1_copy_5-2" data-name="Rectangle 1 copy 5" class="cls-2" d="M135.076,404.4c5.5-7.95,190.222-6.185,194.1.738s3.7,52.18-.246,62.262-188.656,5.129-194.1-.738S129.576,412.354,135.076,404.4Z"/>
  <path id="Rectangle_1_copy_5-3" data-name="Rectangle 1 copy 5" class="cls-2" d="M328.8,412.926c8,11.7.351,440.971-6.809,448.96s-53.4,6.667-63.617-1.82S257.9,421.592,264.015,410.3,320.8,401.226,328.8,412.926Z"/>
  <path id="Ellipse_1_copy_4" data-name="Ellipse 1 copy 4" class="cls-2" d="M286.649,841.754c36.218,0,65.578,28.261,65.578,63.123S322.867,968,286.649,968s-65.579-28.261-65.579-63.123S250.43,841.754,286.649,841.754Z"/>
  <path id="Ellipse_1_copy_4-2" data-name="Ellipse 1 copy 4" class="cls-3" d="M287.718,864.335c22.661,0,41.031,17.7,41.031,39.534S310.379,943.4,287.718,943.4s-41.032-17.7-41.032-39.534S265.057,864.335,287.718,864.335Z"/>
</svg>
