<?xml version="1.0" encoding="utf-8"?>
<!-- Generator: Adobe Illustrator 21.0.2, SVG Export Plug-In . SVG Version: 6.00 Build 0)  -->
<svg version="1.1" id="Layer_1" xmlns="http://www.w3.org/2000/svg" xmlns:xlink="http://www.w3.org/1999/xlink" x="0px" y="0px"
	 viewBox="0 0 200 45.9" style="enable-background:new 0 0 200 45.9;" xml:space="preserve">
<style type="text/css">
	.st0{fill:#0961AD;}
	.st1{fill:#E08527;}
	.st2{fill:#1165AE;}
</style>
<path class="st0" d="M98.4,28.9C98.4,28.9,98.4,28.9,98.4,28.9c-6.1-0.8-11.8-3-11.8-3c-0.3-0.1-0.4-0.4-0.3-0.6
	c0.1-0.3,0.4-0.4,0.6-0.3c0.1,0,5.6,2.2,11.5,2.9c0.3,0,0.5,0.3,0.4,0.6C98.9,28.7,98.6,28.9,98.4,28.9z"/>
<path class="st0" d="M109.8,29.9c-5.5,0-9.1-0.7-9.2-0.7c-0.3-0.1-0.4-0.3-0.4-0.6c0.1-0.3,0.3-0.4,0.6-0.4c0.1,0,7.6,1.4,17.3,0.1
	c0.3,0,0.5,0.2,0.6,0.4c0,0.3-0.2,0.5-0.4,0.6C115.2,29.7,112.3,29.9,109.8,29.9z"/>
<path class="st0" d="M120.5,29.1c-0.3,0-0.5-0.2-0.5-0.5c0-0.3,0.2-0.5,0.5-0.5c0,0,4.2-0.3,12.5-3.2c0.3-0.1,0.5,0,0.6,0.3
	c0.1,0.3,0,0.5-0.3,0.6C124.9,28.8,120.7,29.1,120.5,29.1C120.5,29.1,120.5,29.1,120.5,29.1z"/>
<path class="st1" d="M26.5,8.7c-1.7-0.4-7.7-1.8-7.5,7.3c0.2,9.1,6.6,10.1,8.8,8.7s3.8-3.7,3.5-7.8C31,11.4,28.2,9.1,26.5,8.7z
	 M26.4,20.4c-1,0.6-3.9,0.2-4-3.9c-0.1-4.1,2.6-3.5,3.4-3.3c0.8,0.2,2,1.2,2.2,3.7C28.1,18.8,27.3,19.8,26.4,20.4z"/>
<path class="st1" d="M95.8,8.7C94,8.3,88,6.9,88.3,16.1c0.2,9.1,6.6,10.1,8.8,8.7s3.8-3.7,3.5-7.8C100.3,11.4,97.5,9.1,95.8,8.7z
	 M95.6,20.4c-1,0.6-3.9,0.2-4-3.9c-0.1-4.1,2.6-3.5,3.4-3.3c0.8,0.2,2,1.2,2.2,3.7C97.4,18.8,96.6,19.8,95.6,20.4z"/>
<path class="st1" d="M41.8,8.9c-0.3,0.3-2.7,11-2.7,11S37.1,8.1,36.4,7.8c-0.7-0.2-3.9,1.2-3.7,2.2l3.7,14.7
	c0.1,0.2,0.2,0.3,0.4,0.4c0.4,0.1,1.1,0.1,2.1,0.1c1.1,0,2-0.1,2.4-0.2c0.2,0,0.4-0.2,0.4-0.4c0.6-2.2,4-15.4,4.1-15.6
	C45.8,8.8,42.1,8.6,41.8,8.9z"/>
<path class="st1" d="M52.5,8.9c-0.1-0.3-3.2-1-4.1,0c0,0,0,13.3,0.7,16.2c0,0,0.7,0.2,2.2,0.2c0.8,0,1.3-0.1,1.6-0.2
	c0.3-0.1,0.4-0.3,0.4-0.6c-0.1-1.6-0.4-7.4-0.3-7.9c0.1-0.6,3.8-1.9,4.2-3.1c0.2-0.6,0.2-2,0.1-3.1c0-0.6-0.8-0.9-1.2-0.5
	c-1.3,1.1-3.3,2.9-3.6,3.3C52.5,13.1,52.6,9.2,52.5,8.9z"/>
<path class="st1" d="M71.6,13.6C72,10,71.9,7.9,70.5,8c-1,0.1-1.3,0.9-1.5,2c-0.7-0.7-1.5-1.1-2.1-1.3C65.1,8.4,59.3,7,59.6,16
	c0.2,9,5.9,10.3,8.5,8.6c0.3-0.2,0.6-0.4,0.9-0.7c0.1,0.7,0.3,1.2,0.6,1.2c1.4,0.3,2.7-0.8,2.8-1.7C72.5,22.6,71.2,17.2,71.6,13.6z
	 M66.7,20.4c-1,0.6-3.7,0.2-3.8-3.9c-0.1-4.1,2.5-3.4,3.3-3.3c0.8,0.2,2,1.2,2.1,3.7C68.3,18.7,67.6,19.7,66.7,20.4z"/>
<path class="st2" d="M181.4,13.6c0.4-3.6,0.3-5.7-1.1-5.6c-1,0.1-1.3,0.9-1.5,2c-0.7-0.7-1.5-1.1-2.1-1.3c-1.7-0.4-7.5-1.8-7.2,7.3
	c0.2,9,5.9,10.3,8.5,8.6c0.3-0.2,0.6-0.4,0.9-0.7c0.1,0.7,0.3,1.2,0.6,1.2c1.4,0.3,2.7-0.8,2.8-1.7C182.3,22.6,181,17.2,181.4,13.6z
	 M176.5,20.4c-1,0.6-3.7,0.2-3.8-3.9c-0.1-4.1,2.5-3.4,3.3-3.3c0.8,0.2,2,1.2,2.1,3.7C178.1,18.7,177.4,19.7,176.5,20.4z"/>
<path class="st2" d="M128.6,13.6c0.4-3.6,1-5.1-1.1-5.6c-1-0.2-1.3,0.9-1.5,2c-0.7-0.7-1.5-1.1-2.1-1.3c-1.7-0.4-7.5-1.8-7.2,7.3
	c0.2,9,6.4,10,8.5,8.6c0.3-0.2,0.6-0.4,0.9-0.7c0.1,0.7,0.3,1.2,0.6,1.2c1.4,0.3,2.7-0.8,2.8-1.7C129.5,22.6,128.2,17.2,128.6,13.6z
	 M123.6,20.4c-1,0.6-3.7,0.2-3.8-3.9c-0.1-4.1,2.5-3.4,3.3-3.3c0.8,0.2,2,1.2,2.1,3.7C125.3,18.7,124.6,19.7,123.6,20.4z"/>
<path class="st2" d="M111.8,0.1c-2.7-0.7-8.2,1.2-8.7,7.1c-0.1,1.2,0.8,12.8,1.4,17.4c0,0.3,0.3,0.6,0.7,0.6
	c0.8,0.1,2.2,0.1,2.9-0.4c0.7-0.5,0.7-2.5,0.1-5.9c1.7-0.3,4.7-0.8,5.3-0.9c0.8-0.2,0.7-2.8,0-3.8c-0.5-0.8-3.8,0.5-5.7,1.4
	c-0.3-2.3-0.9-6.3-0.9-7.6c0.1-1.3,0.2-3.7,3.1-3.5c2,0.1,1.1,3.3,1.8,4.1c0.5,0.5,2.8-0.2,3.3-1C115.5,6.8,114.5,0.8,111.8,0.1z"/>
<path class="st2" d="M166,21.3c-2.1,0.2-1.3-15-1.7-18.2c-0.1-0.9-1.5-1.3-2.3-1.2c-0.8,0.1-1.3,0.7-1.3,1.5c0,2.3,0,7.5,0.2,10.6
	c0.4,4,0.3,11.3,4.8,11.2c1.2,0,2.6-1.2,2.4-3.9C167.8,19.7,166,21.3,166,21.3z"/>
<g>
	<path class="st2" d="M183.6,23.9c0-0.8,0.6-1.3,1.3-1.3c0.8,0,1.3,0.6,1.3,1.4c0,0.8-0.5,1.3-1.3,1.3
		C184.1,25.2,183.6,24.7,183.6,23.9z"/>
	<path class="st2" d="M193.7,18.2c0.4,0,0.6,0.3,0.6,0.7c0,0.4,0,0.8-0.1,1.4l-0.1,4c0,1.4-0.3,2.5-1.1,3.2
		c-0.8,0.7-1.9,0.8-2.9,0.8c-0.7,0-1.4-0.1-2-0.4c-0.3-0.1-0.5-0.5-0.4-0.8l0.1-0.4c0.1-0.4,0.5-0.5,0.8-0.4
		c0.4,0.2,0.9,0.3,1.4,0.3c1,0,1.9-0.5,1.9-1.8l0-0.5l0,0c-0.4,0.6-1.1,0.9-1.9,0.9c-1.8,0-3-1.5-2.9-3.5c0-2.3,1.6-3.7,3.3-3.7
		c1,0,1.6,0.5,1.9,1l0,0c0,0-0.1-0.7,0.1-0.8C192.7,18,193.7,18.2,193.7,18.2z M192.1,21c0-0.1,0-0.3,0-0.4c-0.1-0.6-0.6-1-1.2-1
		c-0.8,0-1.5,0.7-1.5,2c0,1.1,0.5,1.9,1.4,1.9c0.6,0,1-0.4,1.2-0.9c0.1-0.2,0.1-0.4,0.1-0.6L192.1,21z"/>
	<path class="st2" d="M195.7,20.6c0-0.7,0-1.2,0-1.7c0-0.4,0.3-0.6,0.6-0.6l0.6,0c0.3,0,0.6,0.3,0.6,0.6l0.1,0.7
		c0.4-1,1.3-1.4,1.9-1.4c0.2,0,0.3,0,0.5,0c0,0,0.6,0.3,0.3,1.5c-0.1,0.4-0.7,0.5-1,0.5c-0.8,0-1.4,0.4-1.5,1.1c0,0.1,0,0.3-0.1,0.5
		l-0.1,3c0,0.4-0.3,0.6-0.6,0.6l-0.9,0c-0.4,0-0.6-0.3-0.6-0.6L195.7,20.6z"/>
</g>
<path class="st2" d="M142.2,10.6c-3.2-2.9-6.4-1.1-6.5-1.2c-0.3-1-0.5-2.7-4.3-0.2c-0.3,0.2-0.2,4.5,0.6,4.2c0.8-0.3,0.9,0,1,0.4
	c0.1,0.4,0.1,11.5,0.9,11.6c0.8,0.1,2.5-0.2,2.6-1.7c0-0.3,0-10.7,0-10.7s2.3-1.6,3.6,0.6c0.9,1.6,0.6,9.1,0.5,10.8
	c-0.1,1.7,2.6,0.8,3-0.5C144.1,22.6,144.8,12.9,142.2,10.6z"/>
<path class="st2" d="M155.8,19.4c-1.5,0.7,0.8,2.1-2.2,2.7c-2,0.4-3-0.9-3.5-2.9c4.8,1.4,7.7-2.6,8.3-5c0.5-2.4-0.5-6.4-6.7-5.7
	c-5.5,0.6-5.6,5.4-5.3,9.2c0.3,3.8,1.6,6.8,6.2,7.4c4.6,0.6,6.8-2.4,6.3-4.7C158.3,18.2,157.3,18.8,155.8,19.4z M150.1,13.5
	c1.3-1.6,4.7-1.2,4.9,0.8c0.2,1.9-1.3,2.4-2.4,2.6c-1.5,0.2-2.8-0.4-2.8-0.4S149.1,14.8,150.1,13.5z"/>
<path class="st1" d="M13.7,4.5L12.6,6c-0.4,0.5-1.3,0.9-1.7,0.4C9.5,4.8,6,4.4,5.2,7c-1.1,3.8,10.6,1.1,11.8,8.8
	c1.8,11.3-13.4,9.5-15.3,9c-1.9-0.5-0.8-3.5,0.3-3.9c1.5-0.6,14.2,1.2,9.9-5.7c-2-3.3-10.8-0.8-11.3-6.4s2.4-8.1,7-8.3
	c3.1-0.2,5.1,1.3,6.1,2.3C14.1,3.2,14.1,4,13.7,4.5z"/>
<path class="st1" d="M80.7,17c0,0,6-6.4,6.2-7.2c0.1-0.8-1.1-1.5-2.1-1.7C84,8,80,12.7,78.3,14.8c-0.1-3.4,0.1-7.4,1-11.3
	c0.1-0.5-0.4-2.1-1.8-2.6c-1.4-0.5-2,0.1-2.1,1.3c-0.1,1.2-1.7,20.7,0.2,23c0,0,2.2,0.6,3-0.4c0.4-0.5,0.1-2.4-0.1-5.1
	c1.3,1.9,3.5,4.7,4,5.1c1,0.9,3.7,0.6,4.3-0.3C87.5,23.6,80.7,17,80.7,17z"/>
<path class="st2" d="M119.7,27c0,0,0.1,2.4,0,2.5c-0.1,0.1-0.6,0.1-0.6,0.1s-0.5-2.2-0.4-2.4C118.9,27,119.5,27,119.7,27z"/>
<path class="st2" d="M99.3,30.5c0,0-0.1-0.4-0.2-1c-1.5,1.6-5,4.4-5.9,5c-0.1,0.1-0.2,0.2-0.1,0.4c1,2.9,2.9,2.8,2.9,2.8
	c0.8-0.4,2.8-1.9,2.8-1.9c0,0.4,0.5,0.4,0.5,0.4c-0.9,1.5-1.4,2.8-1.5,3.2c0,0.1,0,0.2,0,0.3c1.1,2.4,2.7,2.5,3.3,2.4
	c0.2,0,0.3-0.1,0.3-0.3c0.7-2.2,3.9-6.7,4.5-7.6c0.1-0.1,0-0.2-0.1-0.2c-3-0.3-4.6-2.2-5.5-3.7c0,0,0,0,0,0
	C100.3,30.5,99.3,30.5,99.3,30.5z"/>
<path class="st1" d="M120,29.7C120,29.8,120,29.8,120,29.7c-0.1,0.2-0.6,0.3-0.9,0.3l-0.1,0l0-0.1c0-0.1,0-0.2-0.1-0.3l-0.1,0.1
	c-0.1,0-0.1,0.1-0.1,0.2c0.4,0.7,1.9,4.3-0.6,5.2c-3.2,1.2-4.4-2.3-4.7-3c0-0.1-0.1-0.1-0.2-0.1l-0.9,0.4c-0.1,0-0.1,0.1-0.1,0.2
	c0.4,0.8,2.5,4.6,2.7,5.7c0.2,1.3,1,6.7,1.8,7.2c0.8,0.5,5.7,0.4,9.2-3.9c1.2-1.5-3.1-5.3-3.9-6.3C121.4,34.5,120.4,31,120,29.7z"/>
<path class="st2" d="M100.1,27.7c0,0,0.1,2.2,0,2.3c-0.1,0.1-0.5,0.1-0.5,0.1s-0.5-2-0.4-2.2C99.3,27.7,100.1,27.7,100.1,27.7z"/>
</svg>
